<svg xmlns="http://www.w3.org/2000/svg" viewBox="0 0 800 400" width="800" height="400" aria-hidden="true">
  <rect width="800" height="400" fill="#F5F1E8"></rect>
  <g stroke="#0B0B0D" stroke-opacity="0.06" stroke-width="1" fill="none">
    
    <g>
      <line x1="40" y1="0" x2="40" y2="400"></line>
      <line x1="80" y1="0" x2="80" y2="400"></line>
      <line x1="120" y1="0" x2="120" y2="400"></line>
      <line x1="160" y1="0" x2="160" y2="400"></line>
      <line x1="200" y1="0" x2="200" y2="400"></line>
      <line x1="240" y1="0" x2="240" y2="400"></line>
      <line x1="280" y1="0" x2="280" y2="400"></line>
      <line x1="320" y1="0" x2="320" y2="400"></line>
      <line x1="360" y1="0" x2="360" y2="400"></line>
      <line x1="400" y1="0" x2="400" y2="400"></line>
      <line x1="440" y1="0" x2="440" y2="400"></line>
      <line x1="480" y1="0" x2="480" y2="400"></line>
      <line x1="520" y1="0" x2="520" y2="400"></line>
      <line x1="560" y1="0" x2="560" y2="400"></line>
      <line x1="600" y1="0" x2="600" y2="400"></line>
      <line x1="640" y1="0" x2="640" y2="400"></line>
      <line x1="680" y1="0" x2="680" y2="400"></line>
      <line x1="720" y1="0" x2="720" y2="400"></line>
      <line x1="760" y1="0" x2="760" y2="400"></line>
    </g>
    
    <g>
      <line x1="0" y1="40" x2="800" y2="40"></line>
      <line x1="0" y1="80" x2="800" y2="80"></line>
      <line x1="0" y1="120" x2="800" y2="120"></line>
      <line x1="0" y1="160" x2="800" y2="160"></line>
      <line x1="0" y1="200" x2="800" y2="200"></line>
      <line x1="0" y1="240" x2="800" y2="240"></line>
      <line x1="0" y1="280" x2="800" y2="280"></line>
      <line x1="0" y1="320" x2="800" y2="320"></line>
      <line x1="0" y1="360" x2="800" y2="360"></line>
    </g>
  </g>
  
  <g stroke="#0B0B0D" stroke-opacity="0.10" stroke-width="1" fill="none">
    <circle cx="240" cy="200" r="120"></circle>
    <circle cx="560" cy="200" r="80"></circle>
    <line x1="240" y1="80" x2="560" y2="280"></line>
    <line x1="240" y1="320" x2="560" y2="120"></line>
  </g>
</svg>